<?xml version="1.0" standalone="no"?><!DOCTYPE svg PUBLIC "-//W3C//DTD SVG 1.1//EN" "http://www.w3.org/Graphics/SVG/1.1/DTD/svg11.dtd"><svg t="1693571210630" class="icon" viewBox="0 0 1024 1024" version="1.1" xmlns="http://www.w3.org/2000/svg" p-id="2593" xmlns:xlink="http://www.w3.org/1999/xlink" width="200" height="200"><path d="M891.2384 118.8352h-758.5792c-40.30464 0-71.12704 30.81216-71.12704 71.1168v661.38112c0 37.9392 30.8224 71.12704 71.12704 71.12704h758.5792c37.92896 0 71.1168-33.18784 71.1168-71.12704V189.952c0-37.92896-30.8224-71.1168-71.1168-71.1168zM293.85728 239.7184c40.2944 0 75.85792 33.18784 75.85792 75.85792s-33.18784 75.85792-75.85792 75.85792c-40.30464 0-75.85792-33.1776-75.85792-75.85792 0-42.67008 35.55328-75.85792 75.85792-75.85792z m-54.528 576.0512c-7.10656 0-14.22336-2.37568-21.32992-7.1168-14.2336-11.84768-14.2336-28.44672-2.37568-42.67008l146.97472-206.2336c11.85792-11.85792 28.44672-14.2336 42.67008-4.74112l128.01024 90.08128 229.94944-246.53824c11.84768-11.85792 68.75136-73.49248 101.9392-4.74112v419.584c0 2.37568-625.83808 2.37568-625.83808 2.37568z" fill="#dbdbdb" p-id="2594"></path></svg>