<?xml version="1.0" standalone="no"?><!DOCTYPE svg PUBLIC "-//W3C//DTD SVG 1.1//EN" "http://www.w3.org/Graphics/SVG/1.1/DTD/svg11.dtd"><svg t="1693967273495" class="icon" viewBox="0 0 1024 1024" version="1.1" xmlns="http://www.w3.org/2000/svg" p-id="10000" xmlns:xlink="http://www.w3.org/1999/xlink" width="200" height="200"><path d="M452.266667 814.933333l-209.066667-209.066666-89.6-29.866667L302.933333 426.666667l46.933334 17.066666L571.733333 213.333333h273.066667v273.066667l-221.866667 221.866667 17.066667 46.933333-149.333333 149.333333-38.4-89.6z m-166.4-106.666666L345.6 768 256 857.6l-59.733333-59.733333 89.6-89.6z m46.933333-136.533334l149.333333 149.333334 285.866667-285.866667V285.866667h-149.333333l-285.866667 285.866666z m273.066667-119.466666c-25.6-25.6-25.6-64 0-89.6 25.6-25.6 64-25.6 89.6 0 25.6 25.6 25.6 64 0 89.6-25.6 21.333333-68.266667 21.333333-89.6 0z" fill="#515151" p-id="10001"></path></svg>