<?xml version="1.0" standalone="no"?><!DOCTYPE svg PUBLIC "-//W3C//DTD SVG 1.1//EN" "http://www.w3.org/Graphics/SVG/1.1/DTD/svg11.dtd"><svg t="1694687463166" class="icon" viewBox="0 0 1024 1024" version="1.1" xmlns="http://www.w3.org/2000/svg" p-id="2541" xmlns:xlink="http://www.w3.org/1999/xlink" width="200" height="200"><path d="M224 64c88.366 0 160 71.634 160 160 0 75.987-52.97 139.602-124 155.934v264.132C331.03 660.398 384 724.013 384 800c0 88.366-71.634 160-160 160S64 888.366 64 800c0-75.987 52.97-139.602 124-155.934V379.934C116.97 363.602 64 299.987 64 224c0-88.366 71.634-160 160-160z m0 648c-48.601 0-88 39.399-88 88s39.399 88 88 88 88-39.399 88-88-39.399-88-88-88z m0-576c-48.601 0-88 39.399-88 88s39.399 88 88 88 88-39.399 88-88-39.399-88-88-88zM640 368.855c0 11.046-8.954 20-20 20a20 20 0 0 1-12.925-4.737L436.023 239.263c-8.43-7.139-9.476-19.759-2.338-28.188a20 20 0 0 1 2.338-2.338L607.075 63.882c8.43-7.138 21.05-6.091 28.188 2.338A20 20 0 0 1 640 79.145V188h68c69.986 0 126.853 56.167 127.983 125.883L836 316v328.066C907.03 660.398 960 724.013 960 800c0 88.366-71.634 160-160 160s-160-71.634-160-160c0-75.987 52.97-139.602 124-155.934V316c0-30.619-24.573-55.498-55.074-55.992L708 260h-68v108.855zM800 712c-48.601 0-88 39.399-88 88s39.399 88 88 88 88-39.399 88-88-39.399-88-88-88z" fill="#515151" p-id="2542"></path></svg>