<?xml version="1.0" standalone="no"?><!DOCTYPE svg PUBLIC "-//W3C//DTD SVG 1.1//EN" "http://www.w3.org/Graphics/SVG/1.1/DTD/svg11.dtd"><svg t="1694250687472" class="icon" viewBox="0 0 1024 1024" version="1.1" xmlns="http://www.w3.org/2000/svg" p-id="3376" xmlns:xlink="http://www.w3.org/1999/xlink" width="200" height="200"><path d="M928 868.416L729.088 664.64c111.04-161.152 73.6-384-83.52-497.856C488.32 52.992 270.912 91.328 159.872 252.48c-111.04 161.088-73.6 384 83.584 497.792A341.888 341.888 0 0 0 673.6 727.68l195.84 200.704L928 868.416z m-671.104-217.6c-103.808-106.368-103.872-278.848-0.064-385.28a261.184 261.184 0 0 1 375.808-0.064c103.808 106.368 103.872 278.848 0.064 385.28a259.392 259.392 0 0 1-375.808 0z" p-id="3377" fill="#515151"></path></svg>